<svg xmlns="http://www.w3.org/2000/svg"  viewBox="0 0 50 50" width="50px" height="50px"><path d="M 14 4 C 8.4886661 4 4 8.4886661 4 14 L 4 36 C 4 41.511334 8.4886661 46 14 46 L 36 46 C 41.511334 46 46 41.511334 46 36 L 46 14 C 46 8.4886661 41.511334 4 36 4 L 14 4 z M 18 10 L 32 10 C 34.209 10 36 11.791 36 14 L 36 36 C 36 38.209 34.209 40 32 40 L 18 40 C 15.791 40 14 38.209 14 36 L 14 14 C 14 11.791 15.791 10 18 10 z M 18 13 C 17.448 13 17 13.448 17 14 L 17 18 C 17 18.552 17.448 19 18 19 L 32 19 C 32.552 19 33 18.552 33 18 L 33 14 C 33 13.448 32.552 13 32 13 L 18 13 z M 19 21 A 2 2 0 0 0 19 25 A 2 2 0 0 0 19 21 z M 25 21 A 2 2 0 0 0 25 25 A 2 2 0 0 0 25 21 z M 31 21 A 2 2 0 0 0 31 25 A 2 2 0 0 0 31 21 z M 19 27 A 2 2 0 0 0 19 31 A 2 2 0 0 0 19 27 z M 25 27 A 2 2 0 0 0 25 31 A 2 2 0 0 0 25 27 z M 31 27 A 2 2 0 0 0 31 31 A 2 2 0 0 0 31 27 z M 19 33 C 17.895 33 17 33.895 17 35 C 17 36.105 17.895 37 19 37 L 25 37 C 26.105 37 27 36.105 27 35 C 27 33.895 26.105 33 25 33 L 19 33 z M 31 33 A 2 2 0 0 0 31 37 A 2 2 0 0 0 31 33 z"/></svg>